<?xml version="1.0" standalone="no"?>
<!DOCTYPE svg PUBLIC "-//W3C//DTD SVG 20010904//EN"
 "http://www.w3.org/TR/2001/REC-SVG-20010904/DTD/svg10.dtd">
<svg version="1.0" xmlns="http://www.w3.org/2000/svg"
 width="1040.000000pt" height="1040.000000pt" viewBox="0 0 1040.000000 1040.000000"
 preserveAspectRatio="xMidYMid meet">
<metadata>
Created by potrace 1.14, written by Peter Selinger 2001-2017
</metadata>
<g transform="translate(0.000000,1040.000000) scale(0.100000,-0.100000)"
fill="#000000" stroke="none">
<path d="M5102 8625 c-492 -89 -970 -503 -1848 -1600 -207 -258 -686 -877
-682 -881 6 -5 1096 14 1221 22 l109 7 101 116 c56 64 184 211 283 326 412
477 620 625 874 625 41 0 104 -7 140 -15 96 -23 270 -113 395 -206 131 -98
459 -422 627 -619 302 -354 689 -866 1129 -1495 396 -564 1221 -1793 1213
-1806 -3 -5 -1868 -9 -4182 -9 -4027 0 -4178 -1 -4217 -19 -186 -85 -304 -471
-250 -821 36 -235 121 -387 249 -446 l52 -23 4946 -7 4946 -7 28 44 c132 208
153 528 59 902 -59 231 -35 193 -680 1112 -643 917 -928 1321 -1256 1780
-1313 1835 -2002 2607 -2588 2899 -237 119 -460 159 -669 121z"/>
</g>
</svg>
